
        <svg xmlns="http://www.w3.org/2000/svg" xmlns:xlink="http://www.w3.org/1999/xlink" version="1.1" width="3300" 
        height="1075.1553245359928" viewBox="0 0 3300 1075.1553245359928">
			
			<g transform="scale(14.999999999999998) translate(10, 10)">
				<defs id="SvgjsDefs4568"></defs><g id="SvgjsG4569" featureKey="v37d4h-0" transform="matrix(0.6211180712888797,0,0,0.6211180712888797,-0.8757770965554474,-8.757765042110945)" fill="#d82120"><circle xmlns="http://www.w3.org/2000/svg" cx="45.9" cy="55.2" r="13.5"></circle><line xmlns="http://www.w3.org/2000/svg" fill="none" stroke="#d82120" stroke-miterlimit="10" x1="37.9" y1="44.7" x2="26.2" y2="26.9"></line><circle xmlns="http://www.w3.org/2000/svg" cx="23.5" cy="21.7" r="7.6"></circle><line xmlns="http://www.w3.org/2000/svg" fill="none" stroke="#d82120" stroke-miterlimit="10" x1="48.1" y1="44.7" x2="51.3" y2="27.7"></line><circle xmlns="http://www.w3.org/2000/svg" cx="52.3" cy="23.9" r="4.9"></circle><line xmlns="http://www.w3.org/2000/svg" fill="none" stroke="#d82120" stroke-miterlimit="10" x1="57" y1="55.5" x2="77.8" y2="59.2"></line><circle xmlns="http://www.w3.org/2000/svg" fill="none" stroke="#d82120" stroke-miterlimit="10" cx="87" cy="61.3" r="9.4"></circle><circle xmlns="http://www.w3.org/2000/svg" stroke="#d82120" stroke-miterlimit="10" cx="32.5" cy="89.7" r="7.6"></circle><line xmlns="http://www.w3.org/2000/svg" fill="none" stroke="#d82120" stroke-miterlimit="10" x1="40.1" y1="67.4" x2="34.9" y2="82.5"></line></g><g id="SvgjsG4570" featureKey="UxBHKT-0" transform="matrix(2.1466315264332834,0,0,2.1466315264332834,66.99471668186834,-0.9174374064592872)" fill="#d82120"><path d="M17.79 10.04 q1.13 1.24 1.13 3.46 l0 6.5 l-3.02 0 l0 -6.5 q0 -1.18 -0.59 -1.7 t-1.55 -0.52 q-0.8 0 -1.44 0.6 t-0.66 2 l0 6.12 l-3.02 0 l0 -6.5 q0 -1.18 -0.59 -1.7 t-1.53 -0.52 q-0.86 0 -1.49 0.64 t-0.63 2.26 l-0.02 5.82 l-2.98 0 l0 -11 l2.98 0 l0 1 q0.58 -0.52 1.4 -0.86 t1.5 -0.34 q2.32 0 3.54 1.5 q0.62 -0.7 1.54 -1.1 t2 -0.4 q2.3 0 3.43 1.24 z M30.36 18.9 q-0.38 0.52 -1.31 0.93 t-2.03 0.41 q-1.7 0 -2.95 -0.76 t-1.91 -2.07 t-0.66 -2.91 t0.66 -2.91 t1.91 -2.07 t2.95 -0.76 q1.14 0 2.01 0.39 t1.33 0.99 l0 -1.14 l2.96 0 l0 11 l-2.96 0 l0 -1.1 z M29.66 12.25 q-0.82 -0.87 -2.2 -0.87 q-1.4 0 -2.21 0.87 t-0.81 2.25 q0 1.34 0.83 2.22 t2.19 0.88 q1.4 0 2.21 -0.83 t0.81 -2.27 q0 -1.38 -0.82 -2.25 z M39.08 7.369999999999999 q-0.48 0.47 -1.16 0.47 q-0.7 0 -1.19 -0.47 t-0.49 -1.15 q0 -0.66 0.49 -1.13 t1.19 -0.47 q0.68 0 1.16 0.47 t0.48 1.13 q0 0.68 -0.48 1.15 z M36.42 9.02 l3 0 l0 10.98 l-3 0 l0 -10.98 z M47.62 11.87 q-0.86 0.21 -1.58 0.99 t-0.72 2.28 l0 4.86 l-2.98 0 l0 -11 l2.98 0 l0 1.46 q0.74 -0.98 1.81 -1.33 t1.95 -0.33 l0 2.92 q-0.6 -0.06 -1.46 0.15 z M59 18.9 q-0.38 0.52 -1.31 0.93 t-2.03 0.41 q-1.7 0 -2.95 -0.76 t-1.91 -2.07 t-0.66 -2.91 t0.66 -2.91 t1.91 -2.07 t2.95 -0.76 q1.14 0 2.01 0.39 t1.33 0.99 l0 -1.14 l2.96 0 l0 11 l-2.96 0 l0 -1.1 z M58.3 12.25 q-0.82 -0.87 -2.2 -0.87 q-1.4 0 -2.21 0.87 t-0.81 2.25 q0 1.34 0.83 2.22 t2.19 0.88 q1.4 0 2.21 -0.83 t0.81 -2.27 q0 -1.38 -0.82 -2.25 z"></path></g>
			</g>
		</svg>
	