
		<svg xmlns="http://www.w3.org/2000/svg" xmlns:xlink="http://www.w3.org/1999/xlink" version="1.1" width="3215.05376344086" height="1053.763440860215">
			
			<g transform="scale(10.75268817204301) translate(10, 10)">
				<defs id="SvgjsDefs2052"></defs><g id="SvgjsG2053" featureKey="root" fill="#fcfcfc"></g><g id="SvgjsG2054" featureKey="symbol1" fill="#b23846" transform="matrix(0.5444444444444444,0,0,0.5444444444444444,7.277777777777779,11.277777777777779)"><path xmlns="http://www.w3.org/2000/svg" d="M50,95c11.2,0,21.7-4.1,30-11.5l4.8,4.8c0.5,0.5,1.1,0.7,1.8,0.7c0.2,0,0.4,0,0.6-0.1c0.9-0.2,1.5-0.9,1.8-1.8l4.8-17.8  c0.2-0.9,0-1.8-0.6-2.4c-0.6-0.6-1.6-0.9-2.4-0.6l-17.8,4.8c-0.9,0.2-1.5,0.9-1.8,1.8c-0.2,0.9,0,1.8,0.6,2.4l4.7,4.7  C69.1,86.5,59.8,90,50,90c-10.7,0-20.7-4.2-28.3-11.7C14.2,70.7,10,60.7,10,50c0-1.4-1.1-2.5-2.5-2.5S5,48.6,5,50  c0,12,4.7,23.3,13.2,31.8S38,95,50,95z M87.8,72.3l-2.5,9.4l-6.9-6.9L87.8,72.3z"></path><path xmlns="http://www.w3.org/2000/svg" d="M50,5C38.8,5,28.3,9.1,20,16.5l-4.8-4.8c-0.6-0.6-1.6-0.9-2.4-0.6c-0.9,0.2-1.5,0.9-1.8,1.8L6.3,30.6  c-0.2,0.9,0,1.8,0.6,2.4c0.5,0.5,1.1,0.7,1.8,0.7c0.2,0,0.4,0,0.6-0.1l17.8-4.8c0.9-0.2,1.5-0.9,1.8-1.8c0.2-0.9,0-1.8-0.6-2.4  L23.5,20c7.3-6.5,16.6-10,26.5-10c10.7,0,20.7,4.2,28.3,11.7C85.8,29.3,90,39.3,90,50c0,1.4,1.1,2.5,2.5,2.5S95,51.4,95,50  c0-12-4.7-23.3-13.2-31.8S62,5,50,5z M12.2,27.7l2.5-9.4l6.9,6.9L12.2,27.7z"></path></g><g id="SvgjsG2055" featureKey="text1" fill="#000000" transform="matrix(2.9304781329669853,0,0,2.9304781329669853,77.3589345092631,-16.02264615611344)"><path d="M4.12 14.52 q2.34 0 3.24 1.74 l-1.08 0.64 q-0.68 -1.3 -2.16 -1.3 q-0.8 0 -1.39 0.43 t-0.59 1.05 t0.5 0.99 t1.74 0.59 q1.84 0.32 2.54 0.95 t0.7 1.77 q0 1.3 -0.93 2.08 t-2.43 0.78 q-2.64 -0.02 -3.7 -1.88 l1.06 -0.72 q0.34 0.7 1.11 1.11 t1.57 0.41 q0.92 0 1.52 -0.51 t0.6 -1.19 q0 -0.62 -0.49 -1.02 t-2.13 -0.72 q-1.42 -0.28 -2.14 -0.86 t-0.72 -1.68 q0 -1.18 0.9 -1.92 t2.28 -0.74 z M10.94 19.38 q0 1.58 1.12 2.66 t2.74 1.12 q1.62 0 2.63 -1.07 t1.03 -2.71 q0 -1.6 -1 -2.68 t-2.68 -1.1 q-1.62 0 -2.72 1.1 t-1.12 2.68 z M14.8 14.52 q2.12 0 3.48 1.37 t1.38 3.49 q0 2.12 -1.36 3.48 t-3.5 1.38 q-1.18 0 -2.19 -0.5 t-1.51 -1.36 l-0.04 0 l0 6.18 l-1.2 0 l0 -13.8 l1.2 0 l0 1.62 l0.04 0 q0.48 -0.84 1.5 -1.35 t2.2 -0.51 z M22.540000000000003 14.76 l1.2 0 l0 9.24 l-1.2 0 l0 -9.24 z M23.14 10.2 q0.4 0 0.65 0.26 t0.25 0.64 t-0.25 0.64 t-0.65 0.26 q-0.38 0 -0.64 -0.26 t-0.26 -0.64 t0.26 -0.64 t0.64 -0.26 z M27.340000000000003 8.88 l1.2 0 l0 15.12 l-1.2 0 l0 -15.12 z M32.14 8.88 l1.2 0 l0 15.12 l-1.2 0 l0 -15.12 z M37.56 19.38 q0 1.6 1.15 2.67 t2.71 1.11 q1.62 0 2.64 -1.09 t1.02 -2.69 q0 -1.64 -1.03 -2.71 t-2.65 -1.07 q-1.58 0 -2.69 1.09 t-1.15 2.69 z M36.480000000000004 8.88 l1.2 0 l0 7.5 l0.04 0 q0.52 -0.9 1.54 -1.38 t2.16 -0.48 q2.16 0 3.51 1.4 t1.35 3.46 q0 2.14 -1.38 3.49 t-3.48 1.37 q-1.18 0 -2.21 -0.52 t-1.49 -1.34 l-0.04 0 l0 1.62 l-1.2 0 l0 -15.12 z M49.64 19.38 q0 1.66 1.04 2.72 t2.62 1.06 q1.64 0 2.65 -1.08 t1.01 -2.7 q0 -1.6 -1 -2.68 t-2.68 -1.1 q-1.62 0 -2.62 1.08 t-1.02 2.7 z M53.3 14.52 q2.12 0 3.48 1.38 t1.38 3.48 q0 2.14 -1.39 3.49 t-3.47 1.37 q-2.18 -0.02 -3.51 -1.4 t-1.35 -3.46 q0 -2.14 1.37 -3.49 t3.49 -1.37 z M61.440000000000005 14.76 l2.56 3.5 l2.54 -3.5 l1.5 0 l-3.26 4.24 l3.96 5 l-1.56 0 l-3.22 -4.18 l-3.16 4.18 l-1.44 0 l3.84 -5 l-3.3 -4.24 l1.54 0 z"></path></g>
			</g>
		</svg>
	